<?xml version="1.0" encoding="UTF-8"?>
<svg id="Layer_1" data-name="Layer 1" xmlns="http://www.w3.org/2000/svg" viewBox="0 0 1080 1080">
  <defs>
    
  </defs>
  <rect fill="#143CA0" x="-421" y="-1" width="1922" height="1082"></rect>
  <path fill="#C0E0FF" d="M680.14,528.32v175.9c0,2.05-.79,3.98-2.25,5.41-1.44,1.46-3.36,2.25-5.42,2.25h-32.52c-2.12,0-4.03-.9-5.38-2.54-1.4-1.73-1.96-3.99-1.53-6.24,5.27-26.7,6.03-51.77,2.25-74.49l-3.15-18.91s-1.32,42.66-32.2,82.18c-14.96,19.15-35.71,30.89-85.39,28.19-12.66-.9-24.19-3.69-37.42-9.01-14.34-5.77-26.35-13.46-35.69-22.81-9.41-9.37-16.98-20.42-22.52-32.83-5.67-12.59-9.97-25.71-12.77-38.96-2.84-13.29-4.62-26.8-5.27-40.15-.67-13.51-1.01-25.96-1.01-36.97,0-16.69,1.78-35.73,5.31-56.56,3.47-20.63,10.18-40.35,19.97-58.59,9.68-18.08,23.12-33.59,39.92-46.09,16.57-12.3,38.21-18.55,64.33-18.55,13.53,0,27.49,1.1,41.52,3.29,13.92,2.18,29.39,6.39,45.96,12.47,4.14,1.76,8.31,3.29,9.17,6.37,1.12,4,1.5,25.94,1.71,31.19.23,5.36.45,10.4.68,15.09l.67,14.39c.22,5,.56,10.9,1.01,17.49.4,6.93-2.9,8.87-6.19,9.84-5.74,1.73-12.7,1.19-20.69-1.62-22.24-7.7-43.41-11.96-62.96-12.63-19.77-.7-37.44,2.12-52.47,8.38-15.26,6.33-27.52,15.99-36.46,28.69-8.99,12.77-13.55,28.53-13.55,46.83,0,15.04,3.47,28.55,10.34,40.13,6.78,11.49,15.94,21.03,27.22,28.3,11.19,7.23,24.63,12.2,39.9,14.73,14.64,2.45,31.7,4.62,48.91-.45,27.97-8.24,36.09-30.67,36.18-30.89,3.42-9.79,2.79-22-6.66-25.67-17.07-6.62-34.2-4.62-50.3-2.01-2.36.38-4.7-.25-6.44-1.73-1.62-1.39-2.52-3.33-2.52-5.49v-27.81c0-4.08,3.33-7.41,7.41-7.41h47.73c.74,0,72.95.18,83.36.11,1.91-.04,3.72.72,5.09,2.07,1.37,1.37,2.12,3.17,2.12,5.11Z"></path>
</svg>