<?xml version="1.0" encoding="UTF-8"?>
<svg id="Layer_1" data-name="Layer 1" xmlns="http://www.w3.org/2000/svg" viewBox="0 0 1920 1080">
  <defs>
    
  </defs>
  <rect fill="#143CA0" x="-1" y="-1" width="1922" height="1082"></rect>
  <g>
    <path fill="#C0E0FF" d="M1230.74,617.77c-1-18.57-4.69-96.32-4.73-97.11-1.02-21.69-6.87-39.78-16.92-52.31-10.74-13.39-25.72-20.17-44.5-20.17s-33.77,6.79-44.51,20.17c-10.06,12.53-15.9,30.63-16.92,52.3-.04.79-3.73,78.55-4.73,97.08-.15,3.76.56,6.58,2.05,8.13.96,1.02,2.28,1.54,3.92,1.54h37.2c8.72,0,11.37-2.28,11.37-9.75,0-8.06-6.02-20.69-12.4-34.03-3.75-7.87-7.63-15.99-10.51-23.68-.93-2.46-.64-5.11.83-7.25,1.54-2.27,4.15-3.62,6.99-3.62h53.44c2.83,0,5.44,1.35,6.99,3.62,1.47,2.14,1.76,4.8.82,7.26-2.87,7.68-6.75,15.8-10.5,23.67-6.38,13.35-12.4,25.97-12.4,34.03,0,7.47,2.66,9.75,11.37,9.75h37.2c1.2,0,2.9-.3,4.17-1.68,1.47-1.59,2.08-4.34,1.79-7.95ZM1198.58,526.05c-1.44,2.42-4.03,3.86-6.96,3.86h-54.11c-2.8,0-5.44-1.52-6.89-3.95-1.43-2.41-1.49-5.31-.17-7.78,6.31-12.36,18.43-19.17,34.11-19.17s27.79,6.82,34.11,19.19c1.35,2.53,1.31,5.46-.11,7.85Z"></path>
    <g>
      <g>
        <path fill="#C0E0FF" d="M959.3,457.49c-.17-1.18-.54-2.14-1.08-2.85-.55-.7-1.19-1.19-1.96-1.5-.86-.35-1.61-.52-2.21-.52h-42.02c-1.62,0-3.92-.18-6.3,1.21-1.26.74-2.69,3.08-2.69,7.1,0,7.28-.24,13.9-.7,19.65-.47,5.76-1.1,11.11-1.9,15.91-.81,4.86-1.87,9.43-3.14,13.62-1.29,4.2-2.62,8.35-3.95,12.35l-.05.14c-1.1,2.73-3.08,3.14-4.17,3.14-.88,0-3.04-.31-4.17-3.15-1.62-4.16-3.02-8.37-4.18-12.54-1.15-4.15-2.15-8.71-2.96-13.56-.8-4.79-1.44-10.15-1.9-15.91-.46-5.67-.69-12.29-.69-19.65,0-4.03-1.34-6.23-2.57-7.04-1.94-1.27-4.79-1.27-6.41-1.27h-42.02c-2.65,0-3.56.48-4.46,1.88-.89,1.38-1.11,4.14.14,8.07,1.54,4.16,4.51,9.94,8.85,17.16,4.44,7.4,9.32,15.2,14.48,23.16,5.17,7.98,10.39,15.71,15.5,23,5.08,7.22,9.13,12.83,12.07,16.66,2.41,3.2,3.36,7.06,2.86,11.48-.69,13.21-2.07,25.86-4.13,37.62-2.02,11.6-3.28,21.91-3.72,30.64v.14c-.16,1.35.22,2.44,1.21,3.42,1.06,1.06,2.22,1.56,3.68,1.56h36.56c1.66,0,2.97-.51,4.02-1.56.99-.98,1.37-2.07,1.23-3.42v-.14c-.47-8.75-1.78-19.05-3.91-30.62-2.17-11.74-3.61-24.42-4.3-37.71v-.12c0-1.96.18-3.89.55-5.74.42-2.09,1.33-3.98,2.71-5.64,3.13-3.79,7.22-9.37,12.17-16.56,4.98-7.24,10.14-14.98,15.34-23.01,5.22-8.04,10.09-15.84,14.48-23.16,4.35-7.23,7.33-13.02,8.87-17.2.97-2.65,1.02-4.21.92-5.04Z"></path>
        <path fill="#C0E0FF" d="M1070.34,542.64c3.78-2.92,7.17-6.59,10.09-10.92,2.92-4.32,5.17-9.38,6.69-15.03,1.5-5.58,1.71-11.69.63-18.16-1.09-6.55-3.19-12.68-6.23-18.24-3.03-5.5-7.25-10.38-12.55-14.49-5.33-4.13-11.98-7.39-19.75-9.69-7.84-2.32-17.33-3.5-28.21-3.5h-44.76c-1.45,0-2.56.44-3.51,1.38-.98.99-1.55,2.2-1.72,3.69-.46,10.24-1.02,22.63-1.7,37.16-.67,14.18-1.42,29.3-2.22,44.94-.77,14.7-1.51,29.87-2.22,45.09-.68,14.66-1.25,27.11-1.7,37.35,0,1.45.48,2.65,1.45,3.7.93,1.01,2.13,1.48,3.78,1.48h36.56c1.45,0,2.62-.49,3.68-1.56,1.03-1.03,1.53-2.18,1.55-3.59-.23-2.73-.5-6.73-.85-12.24-.34-5.47-.68-11.28-1.02-17.44-.34-6.15-.68-12.23-1.02-18.27-.34-6.02-.62-10.86-.85-14.5v-.15c0-3.79-.86-6.05,2.7-6.05h9.91c2.87,0,2.45,1.63,3.16,4.47l.03.11c1.14,5.73,2.19,12.27,3.1,19.46.92,7.31,1.73,14.28,2.4,20.73.9,7.64,1.79,15.32,2.7,22.99.74,2.35,1.7,3.95,2.84,4.77,1.21.86,2.45,1.28,3.8,1.28h45.78c1.2,0,1.83-.58,2.03-1.31.75-2.7-6.16-19.18-9.26-25.92-2.66-5.77-5.41-12.55-8.69-19.94-3.26-7.29-7.15-14.11-10.65-20.79-1.55-2.96-2.18-5.09-.97-5.92,6.87-4.69,11.3-7.99,15.04-10.88ZM1043.28,535.6c-5.12.93-10.54,1.41-16.12,1.41h-19.14c-1.2,0-2.2-.93-2.29-2.13h0c-.46-7.03-.8-14.07-1.02-20.92-.23-6.74-.57-13.38-1.02-19.73h0c-.09-1.33.96-2.45,2.28-2.45h21.85c14.12,0,24.32,1.52,31.19,4.65,7.35,3.35,11.07,9,11.07,16.77,0,4.15-1.2,7.79-3.56,10.81-2.25,2.87-5.45,5.33-9.51,7.31-3.93,1.9-8.55,3.34-13.74,4.28Z"></path>
      </g>
      <path fill="#C0E0FF" d="M831.76,534.03v89.47c0,1.04-.4,2.02-1.14,2.75-.73.74-1.71,1.14-2.75,1.14h-16.54c-1.08,0-2.05-.46-2.74-1.29-.71-.88-1-2.03-.78-3.18,2.68-13.58,3.07-26.34,1.14-37.89l-1.6-9.62s-.67,21.7-16.38,41.8c-7.61,9.74-18.16,15.71-43.44,14.34-6.44-.46-12.31-1.88-19.03-4.58-7.29-2.94-13.41-6.84-18.16-11.6-4.79-4.77-8.64-10.39-11.46-16.7-2.88-6.41-5.07-13.08-6.5-19.82-1.45-6.76-2.35-13.63-2.68-20.42-.34-6.87-.51-13.2-.51-18.8,0-8.49.91-18.17,2.7-28.77,1.77-10.5,5.18-20.53,10.16-29.8,4.92-9.2,11.76-17.08,20.31-23.44,8.43-6.26,19.44-9.43,32.72-9.43,6.88,0,13.98.56,21.12,1.67,7.08,1.11,14.95,3.25,23.38,6.34,2.1.9,4.23,1.67,4.66,3.24.57,2.04.76,13.19.87,15.87.12,2.73.23,5.29.35,7.68l.34,7.32c.11,2.54.28,5.55.51,8.89.2,3.52-1.47,4.51-3.15,5.01-2.92.88-6.46.6-10.52-.82-11.31-3.92-22.08-6.09-32.03-6.42-10.06-.36-19.04,1.08-26.69,4.26-7.76,3.22-14,8.13-18.55,14.59-4.58,6.5-6.89,14.51-6.89,23.82,0,7.65,1.77,14.52,5.26,20.42,3.45,5.85,8.11,10.7,13.84,14.39,5.69,3.68,12.53,6.2,20.3,7.49,7.45,1.24,16.12,2.35,24.88-.23,14.23-4.19,18.36-15.6,18.4-15.71,1.74-4.98,1.42-11.19-3.39-13.06-8.68-3.37-17.4-2.35-25.59-1.02-1.2.19-2.39-.13-3.28-.88-.82-.7-1.28-1.69-1.28-2.79v-14.15c0-2.08,1.69-3.77,3.77-3.77h24.28c.37,0,37.11.09,42.4.05.97-.02,1.89.37,2.59,1.05.7.7,1.08,1.61,1.08,2.6Z"></path>
    </g>
  </g>
</svg>